<?xml version="1.0" encoding="utf-8"?>
<svg width="183" height="50" viewBox="0 0 183 50" fill="none" xmlns="http://www.w3.org/2000/svg" xmlns:bx="https://boxy-svg.com">
  <defs>
    <bx:export>
      <bx:file format="svg" href="#object-0"/>
      <bx:file format="svg" href="#object-1" path="Untitled 2.svg"/>
    </bx:export>
  </defs>
  <path d="M173.323 0.597412H8.8717C4.30194 0.597412 0.597412 4.89548 0.597412 10.1974V38.9974C0.597412 44.2993 4.30194 48.5974 8.8717 48.5974H173.323C177.893 48.5974 181.597 44.2993 181.597 38.9974V10.1974C181.597 4.89548 177.893 0.597412 173.323 0.597412Z" fill="#22C55E" fill-opacity="0.1" stroke="#22C55E" stroke-opacity="0.4" stroke-width="1.19485"/>
  <path d="M 32.31 34.6 C 37.833 34.6 42.31 30.123 42.31 24.6 C 42.31 19.077 37.833 14.6 32.31 14.6 C 26.787 14.6 22.31 19.077 22.31 24.6 C 22.31 30.123 26.787 34.6 32.31 34.6 Z" fill="#22C55E" fill-opacity="0.2" id="object-1" style="stroke-width: 1;"/>
  <path d="M 27.02 25.295 L 31.02 29.295 L 38.02 21.295" stroke="#22C55E" stroke-width="2" stroke-linecap="round" stroke-linejoin="round" style="stroke-width: 2;" id="object-0"/>
  <path d="M 62.34 22.911 L 60.436 22.911 C 60.381 22.599 60.281 22.322 60.135 22.081 C 59.989 21.837 59.808 21.63 59.591 21.46 C 59.373 21.291 59.125 21.163 58.847 21.078 C 58.572 20.99 58.275 20.946 57.956 20.946 C 57.389 20.946 56.887 21.089 56.449 21.374 C 56.011 21.655 55.668 22.07 55.42 22.616 C 55.173 23.159 55.049 23.823 55.049 24.607 C 55.049 25.405 55.173 26.077 55.42 26.623 C 55.672 27.166 56.014 27.577 56.449 27.855 C 56.887 28.13 57.388 28.268 57.951 28.268 C 58.263 28.268 58.555 28.227 58.827 28.146 C 59.102 28.061 59.348 27.937 59.565 27.774 C 59.786 27.611 59.971 27.411 60.12 27.173 C 60.273 26.936 60.378 26.664 60.436 26.358 L 62.34 26.369 C 62.269 26.864 62.114 27.329 61.877 27.764 C 61.642 28.198 61.335 28.582 60.955 28.914 C 60.575 29.244 60.13 29.502 59.621 29.688 C 59.112 29.872 58.547 29.963 57.926 29.963 C 57.009 29.963 56.191 29.751 55.471 29.327 C 54.752 28.903 54.185 28.29 53.771 27.489 C 53.357 26.688 53.15 25.727 53.15 24.607 C 53.15 23.483 53.358 22.523 53.776 21.725 C 54.193 20.924 54.762 20.311 55.482 19.887 C 56.201 19.463 57.016 19.25 57.926 19.25 C 58.506 19.25 59.046 19.332 59.545 19.495 C 60.044 19.658 60.488 19.897 60.879 20.213 C 61.269 20.525 61.59 20.909 61.841 21.363 C 62.096 21.815 62.262 22.331 62.34 22.911 Z M 67.4 29.974 C 66.636 29.974 65.974 29.806 65.414 29.469 C 64.854 29.133 64.42 28.663 64.111 28.059 C 63.805 27.455 63.652 26.749 63.652 25.941 C 63.652 25.133 63.805 24.425 64.111 23.818 C 64.42 23.21 64.854 22.738 65.414 22.402 C 65.974 22.066 66.636 21.898 67.4 21.898 C 68.164 21.898 68.826 22.066 69.386 22.402 C 69.946 22.738 70.379 23.21 70.684 23.818 C 70.993 24.425 71.147 25.133 71.147 25.941 C 71.147 26.749 70.993 27.455 70.684 28.059 C 70.379 28.663 69.946 29.133 69.386 29.469 C 68.826 29.806 68.164 29.974 67.4 29.974 Z M 67.41 28.497 C 67.824 28.497 68.17 28.383 68.449 28.156 C 68.727 27.925 68.934 27.616 69.07 27.229 C 69.209 26.842 69.279 26.411 69.279 25.936 C 69.279 25.457 69.209 25.024 69.07 24.637 C 68.934 24.247 68.727 23.936 68.449 23.706 C 68.17 23.475 67.824 23.359 67.41 23.359 C 66.986 23.359 66.633 23.475 66.351 23.706 C 66.073 23.936 65.864 24.247 65.725 24.637 C 65.589 25.024 65.521 25.457 65.521 25.936 C 65.521 26.411 65.589 26.842 65.725 27.229 C 65.864 27.616 66.073 27.925 66.351 28.156 C 66.633 28.383 66.986 28.497 67.41 28.497 Z M 74.555 25.238 L 74.555 29.821 L 72.712 29.821 L 72.712 22 L 74.474 22 L 74.474 23.329 L 74.565 23.329 C 74.745 22.891 75.032 22.543 75.426 22.285 C 75.823 22.027 76.313 21.898 76.897 21.898 C 77.437 21.898 77.907 22.014 78.308 22.244 C 78.712 22.475 79.024 22.81 79.245 23.247 C 79.469 23.685 79.579 24.217 79.575 24.841 L 79.575 29.821 L 77.732 29.821 L 77.732 25.126 C 77.732 24.604 77.596 24.194 77.325 23.899 C 77.057 23.604 76.685 23.456 76.21 23.456 C 75.887 23.456 75.601 23.527 75.349 23.67 C 75.102 23.809 74.906 24.011 74.764 24.276 C 74.625 24.541 74.555 24.861 74.555 25.238 Z M 83.292 25.238 L 83.292 29.821 L 81.449 29.821 L 81.449 22 L 83.211 22 L 83.211 23.329 L 83.303 23.329 C 83.482 22.891 83.769 22.543 84.163 22.285 C 84.56 22.027 85.051 21.898 85.635 21.898 C 86.174 21.898 86.644 22.014 87.045 22.244 C 87.449 22.475 87.761 22.81 87.982 23.247 C 88.206 23.685 88.316 24.217 88.313 24.841 L 88.313 29.821 L 86.47 29.821 L 86.47 25.126 C 86.47 24.604 86.334 24.194 86.062 23.899 C 85.794 23.604 85.422 23.456 84.947 23.456 C 84.625 23.456 84.338 23.527 84.087 23.67 C 83.839 23.809 83.644 24.011 83.501 24.276 C 83.362 24.541 83.292 24.861 83.292 25.238 Z M 93.649 29.974 C 92.865 29.974 92.188 29.811 91.617 29.485 C 91.05 29.155 90.614 28.69 90.309 28.09 C 90.003 27.485 89.851 26.774 89.851 25.956 C 89.851 25.152 90.003 24.446 90.309 23.838 C 90.618 23.227 91.049 22.752 91.602 22.412 C 92.155 22.07 92.805 21.898 93.552 21.898 C 94.034 21.898 94.489 21.976 94.917 22.132 C 95.348 22.285 95.728 22.523 96.057 22.845 C 96.39 23.168 96.651 23.578 96.841 24.077 C 97.032 24.573 97.127 25.164 97.127 25.849 L 97.127 26.414 L 90.716 26.414 L 90.716 25.172 L 95.36 25.172 C 95.356 24.819 95.28 24.505 95.131 24.23 C 94.981 23.952 94.772 23.733 94.504 23.573 C 94.24 23.414 93.931 23.334 93.578 23.334 C 93.201 23.334 92.87 23.426 92.585 23.609 C 92.3 23.789 92.077 24.026 91.918 24.322 C 91.762 24.614 91.682 24.934 91.678 25.284 L 91.678 26.369 C 91.678 26.823 91.762 27.214 91.928 27.54 C 92.094 27.862 92.327 28.11 92.625 28.283 C 92.924 28.453 93.274 28.538 93.674 28.538 C 93.943 28.538 94.185 28.5 94.403 28.426 C 94.62 28.348 94.808 28.234 94.968 28.085 C 95.127 27.935 95.248 27.75 95.329 27.53 L 97.05 27.723 C 96.942 28.178 96.735 28.575 96.429 28.914 C 96.127 29.251 95.74 29.512 95.268 29.699 C 94.796 29.882 94.257 29.974 93.649 29.974 Z M 102.097 29.974 C 101.317 29.974 100.646 29.802 100.086 29.459 C 99.529 29.116 99.1 28.643 98.798 28.039 C 98.499 27.431 98.35 26.732 98.35 25.941 C 98.35 25.147 98.503 24.446 98.808 23.838 C 99.114 23.227 99.545 22.752 100.101 22.412 C 100.661 22.07 101.323 21.898 102.087 21.898 C 102.722 21.898 103.284 22.015 103.773 22.249 C 104.265 22.48 104.657 22.808 104.949 23.232 C 105.241 23.653 105.407 24.145 105.448 24.709 L 103.686 24.709 C 103.615 24.332 103.445 24.018 103.177 23.767 C 102.912 23.512 102.557 23.385 102.113 23.385 C 101.736 23.385 101.405 23.487 101.12 23.69 C 100.835 23.891 100.612 24.179 100.453 24.556 C 100.297 24.933 100.218 25.384 100.218 25.91 C 100.218 26.443 100.297 26.902 100.453 27.285 C 100.609 27.665 100.828 27.959 101.11 28.166 C 101.395 28.37 101.729 28.471 102.113 28.471 C 102.384 28.471 102.627 28.421 102.841 28.319 C 103.058 28.214 103.24 28.062 103.386 27.866 C 103.531 27.669 103.632 27.429 103.686 27.148 L 105.448 27.148 C 105.404 27.701 105.241 28.191 104.959 28.619 C 104.677 29.043 104.294 29.376 103.808 29.617 C 103.323 29.855 102.752 29.974 102.097 29.974 Z M 110.867 22 L 110.867 23.426 L 106.371 23.426 L 106.371 22 L 110.867 22 Z M 107.481 20.126 L 109.324 20.126 L 109.324 27.468 C 109.324 27.716 109.361 27.906 109.436 28.039 C 109.514 28.168 109.616 28.256 109.741 28.303 C 109.867 28.351 110.006 28.375 110.159 28.375 C 110.274 28.375 110.379 28.366 110.474 28.349 C 110.573 28.332 110.648 28.317 110.698 28.303 L 111.009 29.744 C 110.911 29.778 110.77 29.816 110.586 29.856 C 110.407 29.897 110.186 29.921 109.925 29.928 C 109.463 29.941 109.047 29.872 108.677 29.719 C 108.307 29.563 108.013 29.322 107.796 28.996 C 107.582 28.67 107.477 28.263 107.481 27.774 L 107.481 20.126 Z M 115.786 29.974 C 115.002 29.974 114.325 29.811 113.755 29.485 C 113.188 29.155 112.752 28.69 112.446 28.09 C 112.141 27.485 111.988 26.774 111.988 25.956 C 111.988 25.152 112.141 24.446 112.446 23.838 C 112.755 23.227 113.186 22.752 113.74 22.412 C 114.293 22.07 114.943 21.898 115.69 21.898 C 116.172 21.898 116.627 21.976 117.054 22.132 C 117.485 22.285 117.865 22.523 118.195 22.845 C 118.527 23.168 118.789 23.578 118.979 24.077 C 119.169 24.573 119.264 25.164 119.264 25.849 L 119.264 26.414 L 112.854 26.414 L 112.854 25.172 L 117.497 25.172 C 117.494 24.819 117.417 24.505 117.268 24.23 C 117.119 23.952 116.91 23.733 116.642 23.573 C 116.377 23.414 116.068 23.334 115.715 23.334 C 115.338 23.334 115.007 23.426 114.722 23.609 C 114.437 23.789 114.215 24.026 114.055 24.322 C 113.899 24.614 113.819 24.934 113.816 25.284 L 113.816 26.369 C 113.816 26.823 113.899 27.214 114.065 27.54 C 114.232 27.862 114.464 28.11 114.763 28.283 C 115.062 28.453 115.411 28.538 115.812 28.538 C 116.08 28.538 116.323 28.5 116.54 28.426 C 116.757 28.348 116.946 28.234 117.105 28.085 C 117.265 27.935 117.385 27.75 117.467 27.53 L 119.188 27.723 C 119.079 28.178 118.872 28.575 118.566 28.914 C 118.264 29.251 117.877 29.512 117.406 29.699 C 116.934 29.882 116.394 29.974 115.786 29.974 Z M 123.726 29.958 C 123.111 29.958 122.561 29.8 122.076 29.485 C 121.59 29.169 121.207 28.711 120.925 28.11 C 120.643 27.509 120.503 26.779 120.503 25.921 C 120.503 25.052 120.645 24.318 120.93 23.721 C 121.219 23.12 121.607 22.667 122.096 22.361 C 122.585 22.053 123.13 21.898 123.731 21.898 C 124.189 21.898 124.566 21.976 124.861 22.132 C 125.156 22.285 125.391 22.47 125.564 22.687 C 125.737 22.901 125.871 23.103 125.966 23.293 L 126.042 23.293 L 126.042 19.393 L 127.891 19.393 L 127.891 29.821 L 126.078 29.821 L 126.078 28.589 L 125.966 28.589 C 125.871 28.779 125.733 28.981 125.554 29.195 C 125.374 29.405 125.136 29.585 124.841 29.734 C 124.545 29.884 124.174 29.958 123.726 29.958 Z M 124.24 28.446 C 124.63 28.446 124.963 28.341 125.238 28.13 C 125.513 27.917 125.722 27.619 125.864 27.239 C 126.007 26.859 126.078 26.416 126.078 25.91 C 126.078 25.405 126.007 24.965 125.864 24.592 C 125.725 24.218 125.518 23.928 125.243 23.721 C 124.971 23.514 124.637 23.41 124.24 23.41 C 123.829 23.41 123.486 23.517 123.211 23.731 C 122.936 23.945 122.729 24.24 122.59 24.617 C 122.451 24.994 122.381 25.425 122.381 25.91 C 122.381 26.399 122.451 26.835 122.59 27.219 C 122.733 27.599 122.941 27.9 123.216 28.12 C 123.495 28.337 123.836 28.446 124.24 28.446 Z" fill="#22C55E" style="stroke-width: 1;"/>
</svg>