<svg width="181" height="47" viewBox="0 0 181 47" fill="none" xmlns="http://www.w3.org/2000/svg">
<path d="M8.27441 0.5H172.726C176.961 0.5 180.5 4.42322 180.5 9.40039V37.5996C180.5 42.5768 176.961 46.5 172.726 46.5H8.27441C4.03882 46.5 0.5 42.5768 0.5 37.5996V9.40039C0.5 4.42322 4.03882 0.5 8.27441 0.5Z" fill="#14B8A6" fill-opacity="0.15" stroke="#14B8A6"/>
<path d="M57.7482 23.3771H55.8439C55.7896 23.0648 55.6895 22.7881 55.5435 22.5471C55.3976 22.3027 55.2159 22.0956 54.9987 21.9259C54.7815 21.7562 54.5337 21.6289 54.2553 21.544C53.9804 21.4558 53.6833 21.4117 53.3643 21.4117C52.7974 21.4117 52.295 21.5542 51.8571 21.8394C51.4192 22.1211 51.0764 22.5352 50.8286 23.0817C50.5808 23.6249 50.4569 24.2885 50.4569 25.0726C50.4569 25.8703 50.5808 26.5424 50.8286 27.0889C51.0798 27.632 51.4226 28.0428 51.8571 28.3211C52.295 28.5961 52.7957 28.7335 53.3592 28.7335C53.6715 28.7335 53.9634 28.6928 54.2349 28.6113C54.5099 28.5265 54.756 28.4026 54.9732 28.2396C55.1939 28.0767 55.3789 27.8764 55.5282 27.6388C55.681 27.4012 55.7862 27.1296 55.8439 26.8241L57.7482 26.8343C57.6769 27.3299 57.5225 27.795 57.2849 28.2295C57.0507 28.6639 56.7435 29.0475 56.3633 29.3802C55.9831 29.7094 55.5384 29.9674 55.0293 30.1541C54.5201 30.3374 53.9549 30.4291 53.3337 30.4291C52.4172 30.4291 51.5991 30.2169 50.8795 29.7926C50.1599 29.3683 49.593 28.7556 49.1789 27.9545C48.7648 27.1534 48.5577 26.1928 48.5577 25.0726C48.5577 23.949 48.7665 22.9884 49.184 22.1907C49.6015 21.3896 50.1701 20.7769 50.8897 20.3526C51.6093 19.9283 52.424 19.7161 53.3337 19.7161C53.9142 19.7161 54.4539 19.7976 54.9529 19.9605C55.4519 20.1235 55.8965 20.3628 56.2869 20.6785C56.6773 20.9907 56.998 21.3743 57.2492 21.8292C57.5038 22.2806 57.6701 22.7966 57.7482 23.3771ZM62.8081 30.4393C62.0443 30.4393 61.3824 30.2712 60.8223 29.9352C60.2622 29.5991 59.8278 29.129 59.5189 28.5248C59.2134 27.9206 59.0606 27.2145 59.0606 26.4066C59.0606 25.5987 59.2134 24.891 59.5189 24.2834C59.8278 23.6758 60.2622 23.2039 60.8223 22.8679C61.3824 22.5318 62.0443 22.3638 62.8081 22.3638C63.5719 22.3638 64.2338 22.5318 64.7939 22.8679C65.354 23.2039 65.7867 23.6758 66.0922 24.2834C66.4011 24.891 66.5556 25.5987 66.5556 26.4066C66.5556 27.2145 66.4011 27.9206 66.0922 28.5248C65.7867 29.129 65.354 29.5991 64.7939 29.9352C64.2338 30.2712 63.5719 30.4393 62.8081 30.4393ZM62.8183 28.9627C63.2324 28.9627 63.5786 28.8489 63.857 28.6215C64.1353 28.3907 64.3424 28.0818 64.4782 27.6948C64.6174 27.3079 64.6869 26.8768 64.6869 26.4015C64.6869 25.9229 64.6174 25.4901 64.4782 25.1031C64.3424 24.7128 64.1353 24.4022 63.857 24.1714C63.5786 23.9405 63.2324 23.8251 62.8183 23.8251C62.394 23.8251 62.041 23.9405 61.7592 24.1714C61.4809 24.4022 61.2721 24.7128 61.1329 25.1031C60.9972 25.4901 60.9293 25.9229 60.9293 26.4015C60.9293 26.8768 60.9972 27.3079 61.1329 27.6948C61.2721 28.0818 61.4809 28.3907 61.7592 28.6215C62.041 28.8489 62.394 28.9627 62.8183 28.9627ZM69.9632 25.704V30.2865H68.12V22.4656H69.8817V23.7946H69.9734C70.1533 23.3567 70.4401 23.0088 70.8339 22.7508C71.231 22.4928 71.7215 22.3638 72.3054 22.3638C72.8451 22.3638 73.3153 22.4792 73.7158 22.71C74.1197 22.9409 74.432 23.2752 74.6527 23.7131C74.8767 24.151 74.987 24.6822 74.9836 25.3068V30.2865H73.1404V25.5919C73.1404 25.0692 73.0047 24.6602 72.7331 24.3648C72.4649 24.0695 72.0932 23.9219 71.618 23.9219C71.2955 23.9219 71.0087 23.9932 70.7575 24.1357C70.5097 24.2749 70.3145 24.4769 70.172 24.7416C70.0328 25.0064 69.9632 25.3272 69.9632 25.704ZM78.7006 25.704V30.2865H76.8574V22.4656H78.6191V23.7946H78.7108C78.8907 23.3567 79.1775 23.0088 79.5713 22.7508C79.9684 22.4928 80.4589 22.3638 81.0428 22.3638C81.5825 22.3638 82.0526 22.4792 82.4532 22.71C82.8571 22.9409 83.1694 23.2752 83.39 23.7131C83.6141 24.151 83.7244 24.6822 83.721 25.3068V30.2865H81.8778V25.5919C81.8778 25.0692 81.742 24.6602 81.4705 24.3648C81.2023 24.0695 80.8306 23.9219 80.3554 23.9219C80.0329 23.9219 79.7461 23.9932 79.4949 24.1357C79.2471 24.2749 79.0519 24.4769 78.9093 24.7416C78.7702 25.0064 78.7006 25.3272 78.7006 25.704ZM89.0571 30.4393C88.273 30.4393 87.5958 30.2763 87.0255 29.9504C86.4586 29.6212 86.0224 29.1561 85.7169 28.5553C85.4114 27.9511 85.2587 27.24 85.2587 26.4219C85.2587 25.6174 85.4114 24.9114 85.7169 24.3037C86.0258 23.6927 86.4569 23.2175 87.0102 22.8781C87.5635 22.5352 88.2136 22.3638 88.9604 22.3638C89.4424 22.3638 89.8972 22.4419 90.3249 22.598C90.756 22.7508 91.1362 22.9884 91.4655 23.3109C91.7981 23.6333 92.0595 24.0441 92.2496 24.5431C92.4397 25.0387 92.5347 25.6293 92.5347 26.315V26.8802H86.1243V25.6378H90.7679C90.7645 25.2848 90.6881 24.9708 90.5388 24.6958C90.3894 24.4175 90.1807 24.1985 89.9125 24.039C89.6477 23.8794 89.3388 23.7997 88.9858 23.7997C88.609 23.7997 88.2781 23.8913 87.9929 24.0746C87.7078 24.2545 87.4855 24.4921 87.3259 24.7875C87.1698 25.0794 87.09 25.4002 87.0866 25.7498V26.8343C87.0866 27.2892 87.1698 27.6795 87.3361 28.0054C87.5024 28.3279 87.735 28.5757 88.0337 28.7488C88.3324 28.9185 88.682 29.0034 89.0826 29.0034C89.3507 29.0034 89.5934 28.9661 89.8107 28.8914C90.0279 28.8133 90.2163 28.6996 90.3758 28.5502C90.5354 28.4009 90.6559 28.2159 90.7374 27.9952L92.4584 28.1887C92.3497 28.6436 92.1427 29.0407 91.8372 29.3802C91.5351 29.7162 91.1481 29.9776 90.6763 30.1643C90.2044 30.3476 89.6647 30.4393 89.0571 30.4393ZM97.5055 30.4393C96.7248 30.4393 96.0544 30.2678 95.4943 29.925C94.9376 29.5821 94.5082 29.1086 94.2061 28.5044C93.9074 27.8968 93.758 27.1975 93.758 26.4066C93.758 25.6123 93.9108 24.9114 94.2163 24.3037C94.5218 23.6927 94.9529 23.2175 95.5096 22.8781C96.0696 22.5352 96.7316 22.3638 97.4953 22.3638C98.1301 22.3638 98.6919 22.4809 99.1807 22.7151C99.6729 22.946 100.065 23.2735 100.357 23.6978C100.649 24.1188 100.815 24.6109 100.856 25.1744H99.0941C99.0228 24.7976 98.8531 24.4837 98.5849 24.2325C98.3202 23.9779 97.9655 23.8506 97.5208 23.8506C97.144 23.8506 96.813 23.9524 96.5279 24.1561C96.2428 24.3564 96.0204 24.6449 95.8609 25.0217C95.7047 25.3985 95.6267 25.8499 95.6267 26.3761C95.6267 26.909 95.7047 27.3673 95.8609 27.7508C96.017 28.131 96.236 28.4246 96.5177 28.6317C96.8028 28.8354 97.1372 28.9372 97.5208 28.9372C97.7923 28.9372 98.035 28.8863 98.2489 28.7844C98.4661 28.6792 98.6477 28.5282 98.7937 28.3313C98.9397 28.1344 99.0398 27.8951 99.0941 27.6134H100.856C100.812 28.1667 100.649 28.6572 100.367 29.0849C100.085 29.5092 99.7017 29.8418 99.2163 30.0828C98.7309 30.3204 98.1606 30.4393 97.5055 30.4393ZM106.275 22.4656V23.8913H101.779V22.4656H106.275ZM102.889 20.5919H104.732V27.9341C104.732 28.1819 104.769 28.372 104.844 28.5044C104.922 28.6334 105.024 28.7216 105.149 28.7692C105.275 28.8167 105.414 28.8405 105.567 28.8405C105.682 28.8405 105.788 28.832 105.883 28.815C105.981 28.798 106.056 28.7827 106.107 28.7692L106.417 30.2101C106.319 30.2441 106.178 30.2814 105.995 30.3221C105.815 30.3629 105.594 30.3866 105.333 30.3934C104.871 30.407 104.455 30.3374 104.085 30.1847C103.715 30.0285 103.422 29.7875 103.204 29.4616C102.991 29.1358 102.885 28.7284 102.889 28.2396V20.5919ZM107.816 30.2865V22.4656H109.659V30.2865H107.816ZM108.743 21.3557C108.451 21.3557 108.2 21.2589 107.989 21.0654C107.779 20.8685 107.674 20.6326 107.674 20.3577C107.674 20.0793 107.779 19.8434 107.989 19.6499C108.2 19.4531 108.451 19.3546 108.743 19.3546C109.038 19.3546 109.289 19.4531 109.496 19.6499C109.707 19.8434 109.812 20.0793 109.812 20.3577C109.812 20.6326 109.707 20.8685 109.496 21.0654C109.289 21.2589 109.038 21.3557 108.743 21.3557ZM113.398 25.704V30.2865H111.555V22.4656H113.317V23.7946H113.408C113.588 23.3567 113.875 23.0088 114.269 22.7508C114.666 22.4928 115.156 22.3638 115.74 22.3638C116.28 22.3638 116.75 22.4792 117.151 22.71C117.555 22.9409 117.867 23.2752 118.087 23.7131C118.311 24.151 118.422 24.6822 118.418 25.3068V30.2865H116.575V25.5919C116.575 25.0692 116.439 24.6602 116.168 24.3648C115.9 24.0695 115.528 23.9219 115.053 23.9219C114.73 23.9219 114.443 23.9932 114.192 24.1357C113.944 24.2749 113.749 24.4769 113.607 24.7416C113.468 25.0064 113.398 25.3272 113.398 25.704ZM123.693 33.3823C123.031 33.3823 122.463 33.2923 121.988 33.1124C121.512 32.9359 121.131 32.6983 120.842 32.3996C120.554 32.1008 120.353 31.7699 120.241 31.4067L121.901 31.0044C121.976 31.1572 122.084 31.3082 122.227 31.4576C122.37 31.6103 122.561 31.7359 122.802 31.8344C123.047 31.9362 123.354 31.9871 123.724 31.9871C124.247 31.9871 124.679 31.8598 125.022 31.6052C125.365 31.3541 125.537 30.9399 125.537 30.3629V28.8812H125.445C125.35 29.0713 125.211 29.2665 125.027 29.4667C124.848 29.667 124.608 29.835 124.309 29.9708C124.014 30.1066 123.642 30.1745 123.194 30.1745C122.594 30.1745 122.049 30.0336 121.56 29.7519C121.075 29.4667 120.688 29.0424 120.399 28.4789C120.114 27.9121 119.971 27.2026 119.971 26.3506C119.971 25.4918 120.114 24.7671 120.399 24.1765C120.688 23.5824 121.076 23.1327 121.565 22.8272C122.054 22.5183 122.599 22.3638 123.2 22.3638C123.658 22.3638 124.035 22.4419 124.33 22.598C124.629 22.7508 124.866 22.9358 125.043 23.153C125.219 23.3669 125.353 23.5688 125.445 23.7589H125.547V22.4656H127.365V30.4138C127.365 31.0825 127.205 31.6358 126.886 32.0737C126.567 32.5116 126.131 32.8391 125.577 33.0564C125.024 33.2736 124.396 33.3823 123.693 33.3823ZM123.709 28.7284C124.099 28.7284 124.432 28.6334 124.707 28.4433C124.982 28.2532 125.19 27.98 125.333 27.6235C125.475 27.2671 125.547 26.8394 125.547 26.3404C125.547 25.8482 125.475 25.4171 125.333 25.0471C125.194 24.6771 124.987 24.3903 124.712 24.1866C124.44 23.9796 124.106 23.876 123.709 23.876C123.298 23.876 122.955 23.983 122.68 24.1968C122.405 24.4107 122.198 24.7043 122.059 25.0777C121.92 25.4477 121.85 25.8686 121.85 26.3404C121.85 26.8191 121.92 27.2383 122.059 27.5981C122.202 27.9545 122.41 28.2328 122.685 28.4331C122.964 28.63 123.305 28.7284 123.709 28.7284ZM130.389 30.3985C130.08 30.3985 129.815 30.2899 129.595 30.0726C129.374 29.8554 129.265 29.5906 129.269 29.2783C129.265 28.9728 129.374 28.7115 129.595 28.4942C129.815 28.277 130.08 28.1684 130.389 28.1684C130.688 28.1684 130.947 28.277 131.168 28.4942C131.392 28.7115 131.506 28.9728 131.509 29.2783C131.506 29.4854 131.451 29.6738 131.346 29.8435C131.244 30.0132 131.109 30.149 130.939 30.2509C130.773 30.3493 130.589 30.3985 130.389 30.3985ZM134.548 30.3985C134.239 30.3985 133.974 30.2899 133.753 30.0726C133.533 29.8554 133.424 29.5906 133.427 29.2783C133.424 28.9728 133.533 28.7115 133.753 28.4942C133.974 28.277 134.239 28.1684 134.548 28.1684C134.846 28.1684 135.106 28.277 135.327 28.4942C135.551 28.7115 135.664 28.9728 135.668 29.2783C135.664 29.4854 135.61 29.6738 135.505 29.8435C135.403 30.0132 135.267 30.149 135.098 30.2509C134.931 30.3493 134.748 30.3985 134.548 30.3985ZM138.706 30.3985C138.397 30.3985 138.133 30.2899 137.912 30.0726C137.691 29.8554 137.583 29.5906 137.586 29.2783C137.583 28.9728 137.691 28.7115 137.912 28.4942C138.133 28.277 138.397 28.1684 138.706 28.1684C139.005 28.1684 139.265 28.277 139.485 28.4942C139.709 28.7115 139.823 28.9728 139.826 29.2783C139.823 29.4854 139.769 29.6738 139.664 29.8435C139.562 30.0132 139.426 30.149 139.256 30.2509C139.09 30.3493 138.907 30.3985 138.706 30.3985Z" fill="#14B8A6"/>
</svg>
