<svg width="159" height="18" viewBox="0 0 159 18" fill="none" xmlns="http://www.w3.org/2000/svg">
<path d="M1.90472 8.94884V7.04401H12.9118C13.3635 7.04401 13.7747 6.93321 14.1455 6.71162C14.5162 6.49003 14.8124 6.19386 15.034 5.82313C15.2556 5.44813 15.3664 5.03477 15.3664 4.58307C15.3664 4.13136 15.2556 3.72227 15.034 3.3558C14.8124 2.98506 14.5162 2.68889 14.1455 2.4673C13.7747 2.24145 13.3635 2.12852 12.9118 2.12852H12.132V0.223694H12.9118C13.7172 0.223694 14.448 0.419716 15.1043 0.811762C15.7648 1.20381 16.2911 1.73009 16.6831 2.3906C17.0752 3.04685 17.2712 3.77767 17.2712 4.58307C17.2712 5.18392 17.1583 5.74855 16.9324 6.27696C16.7066 6.80537 16.3934 7.26986 15.9928 7.67043C15.5922 8.07099 15.1277 8.38421 14.5993 8.61006C14.0752 8.83591 13.5127 8.94884 12.9118 8.94884H1.90472ZM5.89336 13.8899L-0.000110924 7.99642L5.89336 2.10295L7.20372 3.41332L2.61424 7.99642L7.20372 12.5795L5.89336 13.8899ZM24.7563 13.7237V0.632784H33.2705V2.62071H27.1277V6.17469H32.8294V8.16261H27.1277V11.7358H33.3216V13.7237H24.7563ZM37.4796 3.90551L39.4612 7.5298L41.4747 3.90551H43.9228L40.9633 8.8146L43.974 13.7237H41.5386L39.4612 10.1889L37.4029 13.7237H34.9484L37.9399 8.8146L35.0251 3.90551H37.4796ZM45.7126 13.7237V3.90551H48.0265V13.7237H45.7126ZM46.876 2.51205C46.5095 2.51205 46.1941 2.3906 45.9299 2.1477C45.6657 1.90054 45.5336 1.60437 45.5336 1.2592C45.5336 0.909773 45.6657 0.613608 45.9299 0.37071C46.1941 0.123551 46.5095 -2.81334e-05 46.876 -2.81334e-05C47.2467 -2.81334e-05 47.562 0.123551 47.822 0.37071C48.0862 0.613608 48.2183 0.909773 48.2183 1.2592C48.2183 1.60437 48.0862 1.90054 47.822 2.1477C47.562 2.3906 47.2467 2.51205 46.876 2.51205ZM55.3087 3.90551V5.69528H49.6645V3.90551H55.3087ZM51.058 1.55324H53.3719V10.7706C53.3719 11.0816 53.4187 11.3203 53.5125 11.4865C53.6105 11.6484 53.7383 11.7592 53.896 11.8189C54.0537 11.8785 54.2284 11.9084 54.4202 11.9084C54.5651 11.9084 54.6972 11.8977 54.8165 11.8764C54.9401 11.8551 55.0338 11.8359 55.0977 11.8189L55.4876 13.6278C55.3641 13.6704 55.1872 13.7173 54.9571 13.7684C54.7312 13.8196 54.4543 13.8494 54.1261 13.8579C53.5466 13.875 53.0246 13.7876 52.5601 13.5959C52.0956 13.3998 51.727 13.0973 51.4543 12.6882C51.1858 12.2791 51.0537 11.7677 51.058 11.1541V1.55324ZM63.4921 13.7237H60.9608L65.5695 0.632784H68.497L73.1121 13.7237H70.5809L67.0844 3.31744H66.9821L63.4921 13.7237ZM63.5752 8.59088H70.4786V10.4957H63.5752V8.59088ZM74.7341 17.4055V3.90551H77.0097V5.52909H77.1439C77.2632 5.29045 77.4315 5.0369 77.6489 4.76844C77.8662 4.49571 78.1602 4.26347 78.531 4.0717C78.9017 3.87568 79.3747 3.77767 79.95 3.77767C80.7085 3.77767 81.3925 3.97156 82.0018 4.35935C82.6155 4.74287 83.1013 5.31176 83.4592 6.06602C83.8214 6.81602 84.0026 7.73648 84.0026 8.82739C84.0026 9.90551 83.8257 10.8217 83.472 11.576C83.1183 12.3302 82.6368 12.9055 82.0274 13.3018C81.418 13.6981 80.7277 13.8963 79.9564 13.8963C79.3939 13.8963 78.9273 13.8025 78.5565 13.615C78.1858 13.4275 77.8875 13.2017 77.6616 12.9375C77.4401 12.669 77.2675 12.4155 77.1439 12.1768H77.048V17.4055H74.7341ZM77.0033 8.8146C77.0033 9.44955 77.0928 10.0057 77.2717 10.4829C77.455 10.9602 77.717 11.3331 78.058 11.6015C78.4031 11.8657 78.8207 11.9978 79.3108 11.9978C79.8222 11.9978 80.2504 11.8615 80.5956 11.5888C80.9408 11.3118 81.2007 10.9346 81.3754 10.4574C81.5544 9.97582 81.6439 9.42824 81.6439 8.8146C81.6439 8.20523 81.5565 7.66403 81.3818 7.19102C81.2071 6.71801 80.9472 6.34727 80.602 6.07881C80.2568 5.81034 79.8264 5.67611 79.3108 5.67611C78.8165 5.67611 78.3967 5.80608 78.0516 6.06602C77.7064 6.32597 77.4443 6.69031 77.2653 7.15906C77.0906 7.62781 77.0033 8.17966 77.0033 8.8146ZM85.9841 17.4055V3.90551H88.2597V5.52909H88.3939C88.5132 5.29045 88.6815 5.0369 88.8989 4.76844C89.1162 4.49571 89.4102 4.26347 89.781 4.0717C90.1517 3.87568 90.6247 3.77767 91.2 3.77767C91.9585 3.77767 92.6425 3.97156 93.2518 4.35935C93.8655 4.74287 94.3513 5.31176 94.7092 6.06602C95.0714 6.81602 95.2526 7.73648 95.2526 8.82739C95.2526 9.90551 95.0757 10.8217 94.722 11.576C94.3683 12.3302 93.8868 12.9055 93.2774 13.3018C92.668 13.6981 91.9777 13.8963 91.2064 13.8963C90.6439 13.8963 90.1773 13.8025 89.8065 13.615C89.4358 13.4275 89.1375 13.2017 88.9116 12.9375C88.6901 12.669 88.5175 12.4155 88.3939 12.1768H88.298V17.4055H85.9841ZM88.2533 8.8146C88.2533 9.44955 88.3428 10.0057 88.5217 10.4829C88.705 10.9602 88.967 11.3331 89.308 11.6015C89.6531 11.8657 90.0707 11.9978 90.5608 11.9978C91.0722 11.9978 91.5004 11.8615 91.8456 11.5888C92.1908 11.3118 92.4507 10.9346 92.6254 10.4574C92.8044 9.97582 92.8939 9.42824 92.8939 8.8146C92.8939 8.20523 92.8065 7.66403 92.6318 7.19102C92.4571 6.71801 92.1972 6.34727 91.852 6.07881C91.5068 5.81034 91.0764 5.67611 90.5608 5.67611C90.0665 5.67611 89.6467 5.80608 89.3016 6.06602C88.9564 6.32597 88.6943 6.69031 88.5153 7.15906C88.3406 7.62781 88.2533 8.17966 88.2533 8.8146ZM99.548 0.632784V13.7237H97.2341V0.632784H99.548ZM101.927 13.7237V3.90551H104.241V13.7237H101.927ZM103.091 2.51205C102.724 2.51205 102.409 2.3906 102.145 2.1477C101.881 1.90054 101.748 1.60437 101.748 1.2592C101.748 0.909773 101.881 0.613608 102.145 0.37071C102.409 0.123551 102.724 -2.81334e-05 103.091 -2.81334e-05C103.462 -2.81334e-05 103.777 0.123551 104.037 0.37071C104.301 0.613608 104.433 0.909773 104.433 1.2592C104.433 1.60437 104.301 1.90054 104.037 2.1477C103.777 2.3906 103.462 2.51205 103.091 2.51205ZM110.903 13.9155C109.923 13.9155 109.082 13.7003 108.379 13.2699C107.68 12.8395 107.141 12.245 106.761 11.4865C106.386 10.7237 106.199 9.84585 106.199 8.85296C106.199 7.8558 106.391 6.97582 106.774 6.21304C107.158 5.44599 107.699 4.8494 108.398 4.42327C109.101 3.99287 109.932 3.77767 110.891 3.77767C111.688 3.77767 112.393 3.92469 113.006 4.21872C113.624 4.50849 114.117 4.91972 114.483 5.45239C114.849 5.9808 115.058 6.59869 115.109 7.30608H112.898C112.808 6.83307 112.595 6.43889 112.259 6.12355C111.926 5.80395 111.481 5.64415 110.923 5.64415C110.45 5.64415 110.034 5.77199 109.676 6.02767C109.318 6.27909 109.039 6.64131 108.839 7.11432C108.643 7.58733 108.545 8.15409 108.545 8.8146C108.545 9.48364 108.643 10.0589 108.839 10.5405C109.035 11.0177 109.31 11.3863 109.663 11.6463C110.021 11.902 110.441 12.0298 110.923 12.0298C111.264 12.0298 111.568 11.9659 111.837 11.838C112.109 11.7059 112.337 11.5163 112.521 11.2691C112.704 11.022 112.83 10.7216 112.898 10.3679H115.109C115.054 11.0625 114.849 11.6782 114.496 12.2152C114.142 12.7478 113.661 13.1655 113.051 13.468C112.442 13.7663 111.726 13.9155 110.903 13.9155ZM119.835 13.9218C119.213 13.9218 118.652 13.8111 118.154 13.5895C117.659 13.3636 117.267 13.0312 116.978 12.5923C116.692 12.1534 116.549 11.6122 116.549 10.9687C116.549 10.4147 116.652 9.95665 116.856 9.59443C117.061 9.23222 117.34 8.94244 117.693 8.72511C118.047 8.50778 118.446 8.34372 118.889 8.23293C119.336 8.11787 119.799 8.03477 120.276 7.98364C120.851 7.92398 121.318 7.87071 121.676 7.82384C122.034 7.7727 122.294 7.69599 122.456 7.59372C122.622 7.48719 122.705 7.32313 122.705 7.10153V7.06318C122.705 6.58165 122.562 6.20878 122.277 5.94457C121.991 5.68037 121.58 5.54827 121.043 5.54827C120.476 5.54827 120.027 5.67185 119.694 5.91901C119.366 6.16617 119.144 6.45807 119.029 6.79472L116.869 6.4879C117.039 5.89131 117.321 5.39273 117.713 4.99216C118.105 4.58733 118.584 4.28477 119.151 4.08449C119.718 3.87994 120.344 3.77767 121.03 3.77767C121.503 3.77767 121.974 3.83307 122.443 3.94386C122.911 4.05466 123.34 4.2379 123.728 4.49358C124.115 4.745 124.426 5.08804 124.661 5.5227C124.899 5.95736 125.019 6.50068 125.019 7.15267V13.7237H122.794V12.375H122.718C122.577 12.6477 122.379 12.9034 122.123 13.142C121.872 13.3764 121.554 13.566 121.171 13.7109C120.791 13.8515 120.346 13.9218 119.835 13.9218ZM120.436 12.2216C120.9 12.2216 121.303 12.1299 121.644 11.9467C121.985 11.7592 122.247 11.512 122.43 11.2052C122.617 10.8984 122.711 10.5639 122.711 10.2017V9.04472C122.639 9.10438 122.515 9.15977 122.34 9.21091C122.17 9.26205 121.978 9.30679 121.765 9.34514C121.552 9.38349 121.341 9.41759 121.132 9.44742C120.924 9.47724 120.742 9.50281 120.589 9.52412C120.244 9.57099 119.935 9.6477 119.662 9.75423C119.389 9.86077 119.174 10.0099 119.017 10.2017C118.859 10.3892 118.78 10.6321 118.78 10.9304C118.78 11.3565 118.936 11.6782 119.247 11.8956C119.558 12.1129 119.954 12.2216 120.436 12.2216ZM132.248 3.90551V5.69528H126.604V3.90551H132.248ZM127.997 1.55324H130.311V10.7706C130.311 11.0816 130.358 11.3203 130.452 11.4865C130.55 11.6484 130.678 11.7592 130.835 11.8189C130.993 11.8785 131.168 11.9084 131.36 11.9084C131.505 11.9084 131.637 11.8977 131.756 11.8764C131.88 11.8551 131.973 11.8359 132.037 11.8189L132.427 13.6278C132.304 13.6704 132.127 13.7173 131.897 13.7684C131.671 13.8196 131.394 13.8494 131.066 13.8579C130.486 13.875 129.964 13.7876 129.5 13.5959C129.035 13.3998 128.666 13.0973 128.394 12.6882C128.125 12.2791 127.993 11.7677 127.997 11.1541V1.55324ZM134.183 13.7237V3.90551H136.497V13.7237H134.183ZM135.347 2.51205C134.98 2.51205 134.665 2.3906 134.401 2.1477C134.136 1.90054 134.004 1.60437 134.004 1.2592C134.004 0.909773 134.136 0.613608 134.401 0.37071C134.665 0.123551 134.98 -2.81334e-05 135.347 -2.81334e-05C135.717 -2.81334e-05 136.033 0.123551 136.293 0.37071C136.557 0.613608 136.689 0.909773 136.689 1.2592C136.689 1.60437 136.557 1.90054 136.293 2.1477C136.033 2.3906 135.717 2.51205 135.347 2.51205ZM143.159 13.9155C142.201 13.9155 141.37 13.7045 140.666 13.2826C139.963 12.8608 139.418 12.2706 139.03 11.512C138.647 10.7535 138.455 9.86716 138.455 8.85296C138.455 7.83875 138.647 6.95026 139.03 6.18747C139.418 5.42469 139.963 4.83236 140.666 4.41048C141.37 3.98861 142.201 3.77767 143.159 3.77767C144.118 3.77767 144.949 3.98861 145.652 4.41048C146.355 4.83236 146.899 5.42469 147.282 6.18747C147.67 6.95026 147.864 7.83875 147.864 8.85296C147.864 9.86716 147.67 10.7535 147.282 11.512C146.899 12.2706 146.355 12.8608 145.652 13.2826C144.949 13.7045 144.118 13.9155 143.159 13.9155ZM143.172 12.0618C143.692 12.0618 144.127 11.919 144.476 11.6335C144.826 11.3437 145.085 10.9559 145.256 10.4701C145.431 9.98435 145.518 9.44315 145.518 8.84656C145.518 8.24571 145.431 7.70239 145.256 7.21659C145.085 6.72653 144.826 6.33662 144.476 6.04685C144.127 5.75707 143.692 5.61219 143.172 5.61219C142.639 5.61219 142.196 5.75707 141.843 6.04685C141.493 6.33662 141.231 6.72653 141.056 7.21659C140.886 7.70239 140.801 8.24571 140.801 8.84656C140.801 9.44315 140.886 9.98435 141.056 10.4701C141.231 10.9559 141.493 11.3437 141.843 11.6335C142.196 11.919 142.639 12.0618 143.172 12.0618ZM152.142 7.97085V13.7237H149.828V3.90551H152.039V5.57384H152.155C152.38 5.02412 152.74 4.58733 153.235 4.26347C153.733 3.9396 154.349 3.77767 155.082 3.77767C155.76 3.77767 156.35 3.92256 156.853 4.21233C157.36 4.5021 157.752 4.92185 158.029 5.47156C158.31 6.02128 158.449 6.68818 158.444 7.47227V13.7237H156.13V7.83023C156.13 7.17398 155.96 6.66048 155.619 6.28974C155.282 5.91901 154.816 5.73364 154.219 5.73364C153.814 5.73364 153.454 5.82313 153.139 6.0021C152.828 6.17682 152.583 6.43037 152.404 6.76276C152.229 7.09514 152.142 7.49784 152.142 7.97085Z" fill="white"/>
</svg>
