<?xml version="1.0" encoding="utf-8"?>
<svg width="182" height="49" viewBox="0 0 182 49" fill="none" xmlns="http://www.w3.org/2000/svg">
  <path d="M173.226 0.5H8.77429C4.20452 0.5 0.5 4.79807 0.5 10.1V38.9C0.5 44.2019 4.20452 48.5 8.77429 48.5H173.226C177.795 48.5 181.5 44.2019 181.5 38.9V10.1C181.5 4.79807 177.795 0.5 173.226 0.5Z" fill="#EF4444" fill-opacity="0.1" stroke="#EF4444" stroke-opacity="0.4"/>
  <path d="M 31.3 32.614 C 36.27 32.614 40.3 28.585 40.3 23.614 C 40.3 18.644 36.27 14.614 31.3 14.614 C 26.329 14.614 22.3 18.644 22.3 23.614 C 22.3 28.585 26.329 32.614 31.3 32.614 Z" fill="#EF4444" fill-opacity="0.2" style="stroke-width: 1;"/>
  <path d="M 26.8 19.114 L 35.8 28.114 M 35.8 19.114 L 26.8 28.114" stroke="#EF4444" stroke-width="1.8" stroke-linecap="round" style="stroke-width: 1.8;"/>
  <path d="M 53.2 30.132 L 53.2 19.705 L 59.881 19.705 L 59.881 21.288 L 55.089 21.288 L 55.089 24.119 L 59.422 24.119 L 59.422 25.703 L 55.089 25.703 L 55.089 30.132 L 53.2 30.132 Z M 63.701 30.29 C 63.205 30.29 62.759 30.202 62.362 30.025 C 61.968 29.846 61.656 29.581 61.425 29.231 C 61.197 28.881 61.084 28.45 61.084 27.938 C 61.084 27.497 61.165 27.132 61.328 26.843 C 61.491 26.555 61.713 26.324 61.995 26.151 C 62.277 25.977 62.594 25.847 62.947 25.759 C 63.304 25.667 63.672 25.601 64.052 25.56 C 64.51 25.512 64.882 25.47 65.167 25.433 C 65.452 25.392 65.659 25.331 65.788 25.249 C 65.921 25.165 65.987 25.034 65.987 24.857 L 65.987 24.827 C 65.987 24.443 65.873 24.146 65.646 23.936 C 65.418 23.725 65.091 23.62 64.663 23.62 C 64.212 23.62 63.854 23.718 63.589 23.915 C 63.327 24.112 63.151 24.345 63.059 24.613 L 61.338 24.369 C 61.474 23.893 61.698 23.496 62.01 23.177 C 62.323 22.855 62.705 22.614 63.156 22.454 C 63.607 22.291 64.106 22.21 64.653 22.21 C 65.03 22.21 65.405 22.254 65.778 22.342 C 66.152 22.43 66.493 22.576 66.802 22.78 C 67.111 22.98 67.358 23.253 67.545 23.6 C 67.735 23.946 67.83 24.379 67.83 24.898 L 67.83 30.132 L 66.058 30.132 L 66.058 29.058 L 65.997 29.058 C 65.885 29.275 65.727 29.479 65.524 29.669 C 65.323 29.856 65.07 30.007 64.765 30.122 C 64.463 30.234 64.108 30.29 63.701 30.29 Z M 64.179 28.936 C 64.549 28.936 64.87 28.863 65.142 28.717 C 65.413 28.567 65.622 28.371 65.768 28.126 C 65.917 27.882 65.992 27.615 65.992 27.327 L 65.992 26.405 C 65.934 26.453 65.836 26.497 65.697 26.538 C 65.561 26.578 65.408 26.614 65.238 26.644 C 65.069 26.675 64.901 26.702 64.734 26.726 C 64.568 26.75 64.424 26.77 64.302 26.787 C 64.027 26.824 63.781 26.886 63.563 26.97 C 63.346 27.055 63.175 27.174 63.049 27.327 C 62.923 27.476 62.861 27.67 62.861 27.907 C 62.861 28.247 62.985 28.503 63.232 28.676 C 63.48 28.849 63.796 28.936 64.179 28.936 Z M 69.684 30.132 L 69.684 22.311 L 71.527 22.311 L 71.527 30.132 L 69.684 30.132 Z M 70.61 21.201 C 70.318 21.201 70.067 21.105 69.857 20.911 C 69.646 20.714 69.541 20.478 69.541 20.203 C 69.541 19.925 69.646 19.689 69.857 19.496 C 70.067 19.299 70.318 19.2 70.61 19.2 C 70.906 19.2 71.157 19.299 71.364 19.496 C 71.574 19.689 71.679 19.925 71.679 20.203 C 71.679 20.478 71.574 20.714 71.364 20.911 C 71.157 21.105 70.906 21.201 70.61 21.201 Z M 75.265 19.705 L 75.265 30.132 L 73.422 30.132 L 73.422 19.705 L 75.265 19.705 Z M 80.623 30.285 C 79.839 30.285 79.162 30.122 78.591 29.796 C 78.025 29.467 77.588 29.002 77.283 28.401 C 76.977 27.797 76.825 27.086 76.825 26.268 C 76.825 25.463 76.977 24.757 77.283 24.15 C 77.592 23.539 78.023 23.063 78.576 22.724 C 79.129 22.381 79.78 22.21 80.526 22.21 C 81.008 22.21 81.463 22.288 81.891 22.444 C 82.322 22.597 82.702 22.834 83.031 23.157 C 83.364 23.479 83.625 23.89 83.816 24.389 C 84.006 24.884 84.101 25.475 84.101 26.161 L 84.101 26.726 L 77.69 26.726 L 77.69 25.484 L 82.334 25.484 C 82.33 25.131 82.254 24.817 82.105 24.542 C 81.955 24.263 81.747 24.044 81.478 23.885 C 81.214 23.725 80.905 23.645 80.552 23.645 C 80.175 23.645 79.844 23.737 79.559 23.92 C 79.274 24.1 79.051 24.338 78.892 24.633 C 78.736 24.925 78.656 25.246 78.653 25.596 L 78.653 26.68 C 78.653 27.135 78.736 27.525 78.902 27.851 C 79.068 28.174 79.301 28.421 79.6 28.595 C 79.898 28.764 80.248 28.849 80.649 28.849 C 80.917 28.849 81.159 28.812 81.377 28.737 C 81.594 28.659 81.782 28.545 81.942 28.396 C 82.101 28.247 82.222 28.062 82.303 27.841 L 84.024 28.035 C 83.916 28.489 83.709 28.887 83.403 29.226 C 83.101 29.562 82.714 29.823 82.242 30.01 C 81.77 30.193 81.231 30.285 80.623 30.285 Z M 88.562 30.27 C 87.948 30.27 87.398 30.112 86.913 29.796 C 86.427 29.481 86.044 29.022 85.762 28.421 C 85.48 27.821 85.339 27.091 85.339 26.232 C 85.339 25.363 85.482 24.63 85.767 24.032 C 86.055 23.432 86.444 22.978 86.933 22.673 C 87.422 22.364 87.967 22.21 88.567 22.21 C 89.026 22.21 89.402 22.288 89.698 22.444 C 89.993 22.597 90.227 22.782 90.4 22.999 C 90.573 23.213 90.708 23.415 90.803 23.605 L 90.879 23.605 L 90.879 19.705 L 92.727 19.705 L 92.727 30.132 L 90.915 30.132 L 90.915 28.9 L 90.803 28.9 C 90.708 29.09 90.57 29.292 90.39 29.506 C 90.21 29.717 89.973 29.896 89.677 30.046 C 89.382 30.195 89.01 30.27 88.562 30.27 Z M 89.077 28.758 C 89.467 28.758 89.8 28.652 90.075 28.442 C 90.349 28.228 90.558 27.931 90.701 27.551 C 90.843 27.171 90.915 26.728 90.915 26.222 C 90.915 25.716 90.843 25.277 90.701 24.903 C 90.562 24.53 90.355 24.24 90.08 24.032 C 89.808 23.825 89.474 23.722 89.077 23.722 C 88.666 23.722 88.323 23.829 88.048 24.043 C 87.773 24.256 87.566 24.552 87.427 24.929 C 87.288 25.305 87.218 25.736 87.218 26.222 C 87.218 26.711 87.288 27.147 87.427 27.53 C 87.569 27.911 87.778 28.211 88.053 28.432 C 88.331 28.649 88.673 28.758 89.077 28.758 Z" fill="#EF4444" style="stroke-width: 1;"/>
</svg>