<?xml version="1.0" encoding="utf-8"?>
<svg xmlns="http://www.w3.org/2000/svg" viewBox="74 294 47.794 649.794" width="47.794px" height="649.794px">
  <defs>
    <clipPath id="clip0_181_98">
      <rect width="1920" height="1079.99" fill="white" x="13.492" y="4.498"/>
    </clipPath>
  </defs>
  <path d="M109.846 294H85.9485C79.3495 294 74 299.35 74 305.949V329.846C74 336.445 79.3495 341.794 85.9485 341.794H109.846C116.445 341.794 121.794 336.445 121.794 329.846V305.949C121.794 299.35 116.445 294 109.846 294Z" fill="#3B82F6" clip-path="url(#clip0_181_98)" transform="matrix(0.9999999999999999, 0, 0, 1, -5.684341886080802e-14, 0)"/>
  <path d="M99.8531 311.909V325H97.0853V314.536H97.0086L94.0107 316.415V313.961L97.2515 311.909H99.8531Z" fill="white" clip-path="url(#clip0_181_98)" transform="matrix(0.9999999999999999, 0, 0, 1, -5.684341886080802e-14, 0)"/>
  <path d="M109.846 361H85.9485C79.3495 361 74 366.35 74 372.949V396.846C74 403.445 79.3495 408.794 85.9485 408.794H109.846C116.445 408.794 121.794 403.445 121.794 396.846V372.949C121.794 366.35 116.445 361 109.846 361Z" fill="#EF4444" clip-path="url(#clip0_181_98)" transform="matrix(0.9999999999999999, 0, 0, 1, -5.684341886080802e-14, 0)"/>
  <path d="M93.3921 392V390.005L98.0519 385.691C98.4482 385.307 98.7806 384.962 99.0491 384.655C99.3218 384.349 99.5285 384.048 99.6691 383.754C99.8097 383.456 99.8801 383.134 99.8801 382.789C99.8801 382.405 99.7927 382.075 99.618 381.798C99.4433 381.517 99.2046 381.302 98.9021 381.153C98.5995 380.999 98.2565 380.922 97.873 380.922C97.4724 380.922 97.123 381.003 96.8247 381.165C96.5264 381.327 96.2963 381.559 96.1343 381.862C95.9724 382.165 95.8914 382.525 95.8914 382.942H93.2643C93.2643 382.086 93.4582 381.342 93.846 380.711C94.2338 380.081 94.7771 379.593 95.4759 379.248C96.1748 378.903 96.9802 378.73 97.8921 378.73C98.8296 378.73 99.6457 378.896 100.34 379.229C101.039 379.557 101.582 380.013 101.97 380.596C102.358 381.18 102.552 381.849 102.552 382.604C102.552 383.098 102.454 383.586 102.258 384.067C102.066 384.549 101.723 385.084 101.229 385.672C100.734 386.255 100.038 386.956 99.1386 387.775L97.2274 389.648V389.737H102.725V392H93.3921Z" fill="white" clip-path="url(#clip0_181_98)" transform="matrix(0.9999999999999999, 0, 0, 1, -5.684341886080802e-14, 0)"/>
  <path d="M109.846 428H85.9485C79.3495 428 74 433.35 74 439.949V463.846C74 470.445 79.3495 475.794 85.9485 475.794H109.846C116.445 475.794 121.794 470.445 121.794 463.846V439.949C121.794 433.35 116.445 428 109.846 428Z" fill="#22C55E" clip-path="url(#clip0_181_98)" transform="matrix(0.9999999999999999, 0, 0, 1, -5.684341886080802e-14, 0)"/>
  <path d="M97.9672 459.179C97.0127 459.179 96.1626 459.015 95.4168 458.687C94.6753 458.354 94.0894 457.898 93.659 457.319C93.2329 456.735 93.0134 456.062 93.0006 455.299H95.7876C95.8046 455.618 95.909 455.9 96.1008 456.143C96.2968 456.381 96.5567 456.567 96.8806 456.699C97.2045 456.831 97.5688 456.897 97.9736 456.897C98.3955 456.897 98.7684 456.822 99.0922 456.673C99.4161 456.524 99.6697 456.317 99.8529 456.053C100.036 455.789 100.128 455.484 100.128 455.139C100.128 454.79 100.03 454.481 99.8337 454.212C99.642 453.939 99.365 453.726 99.0028 453.573C98.6448 453.42 98.2187 453.343 97.7243 453.343H96.5035V451.31H97.7243C98.142 451.31 98.5106 451.238 98.8302 451.093C99.154 450.948 99.4055 450.748 99.5844 450.492C99.7634 450.232 99.8529 449.93 99.8529 449.584C99.8529 449.256 99.7741 448.969 99.6164 448.721C99.463 448.47 99.2457 448.274 98.9644 448.133C98.6874 447.993 98.3635 447.922 97.9928 447.922C97.6178 447.922 97.2748 447.991 96.9637 448.127C96.6526 448.259 96.4033 448.449 96.2158 448.696C96.0283 448.943 95.9282 449.233 95.9154 449.565H93.2627C93.2755 448.811 93.4907 448.146 93.9083 447.571C94.3259 446.996 94.8884 446.546 95.5958 446.222C96.3074 445.894 97.1107 445.73 98.0056 445.73C98.909 445.73 99.6995 445.894 100.377 446.222C101.055 446.55 101.581 446.993 101.956 447.552C102.335 448.106 102.523 448.728 102.518 449.418C102.523 450.151 102.295 450.763 101.834 451.253C101.378 451.743 100.784 452.054 100.051 452.186V452.288C101.014 452.412 101.747 452.746 102.25 453.292C102.757 453.833 103.008 454.511 103.004 455.324C103.008 456.07 102.793 456.733 102.359 457.312C101.928 457.892 101.334 458.348 100.575 458.68C99.8167 459.013 98.9474 459.179 97.9672 459.179Z" fill="white" clip-path="url(#clip0_181_98)" transform="matrix(0.9999999999999999, 0, 0, 1, -5.684341886080802e-14, 0)"/>
  <path d="M109.846 495H85.9485C79.3495 495 74 500.35 74 506.949V530.846C74 537.445 79.3495 542.794 85.9485 542.794H109.846C116.445 542.794 121.794 537.445 121.794 530.846V506.949C121.794 500.35 116.445 495 109.846 495Z" fill="#F59E0B" clip-path="url(#clip0_181_98)" transform="matrix(0.9999999999999999, 0, 0, 1, -5.684341886080802e-14, 0)"/>
  <path d="M92.2633 523.699V521.519L97.7285 512.909H99.6078V515.926H98.4956L95.0502 521.378V521.481H102.817V523.699H92.2633ZM98.5467 526V523.034L98.5978 522.069V512.909H101.193V526H98.5467Z" fill="white" clip-path="url(#clip0_181_98)" transform="matrix(0.9999999999999999, 0, 0, 1, -5.684341886080802e-14, 0)"/>
  <path d="M109.846 562H85.9485C79.3495 562 74 567.35 74 573.949V597.846C74 604.445 79.3495 609.794 85.9485 609.794H109.846C116.445 609.794 121.794 604.445 121.794 597.846V573.949C121.794 567.35 116.445 562 109.846 562Z" fill="#8B5CF6" clip-path="url(#clip0_181_98)" transform="matrix(0.9999999999999999, 0, 0, 1, -5.684341886080802e-14, 0)"/>
  <path d="M98.0415 593.179C97.1381 593.179 96.3327 593.013 95.6254 592.68C94.9222 592.348 94.364 591.89 93.9506 591.306C93.5373 590.722 93.3221 590.053 93.305 589.299H95.9897C96.0195 589.806 96.2326 590.217 96.6289 590.533C97.0252 590.848 97.4961 591.006 98.0415 591.006C98.4762 591.006 98.8597 590.91 99.1921 590.718C99.5288 590.522 99.7908 590.251 99.9783 589.906C100.17 589.557 100.266 589.156 100.266 588.704C100.266 588.244 100.168 587.839 99.9719 587.49C99.7802 587.141 99.5138 586.868 99.1729 586.672C98.832 586.476 98.4421 586.376 98.0032 586.371C97.6197 586.371 97.2468 586.45 96.8846 586.608C96.5266 586.766 96.2475 586.981 96.0472 587.253L93.5863 586.812L94.2063 579.909H102.209V582.172H96.4883L96.1495 585.451H96.2262C96.4563 585.127 96.8036 584.859 97.2681 584.645C97.7326 584.432 98.2525 584.326 98.8278 584.326C99.6161 584.326 100.319 584.511 100.937 584.882C101.555 585.253 102.043 585.762 102.401 586.41C102.759 587.053 102.936 587.795 102.931 588.634C102.936 589.516 102.731 590.3 102.318 590.986C101.909 591.668 101.336 592.205 100.598 592.597C99.8654 592.985 99.0131 593.179 98.0415 593.179Z" fill="white" clip-path="url(#clip0_181_98)" transform="matrix(0.9999999999999999, 0, 0, 1, -5.684341886080802e-14, 0)"/>
  <path d="M109.846 629H85.9485C79.3495 629 74 634.35 74 640.949V664.846C74 671.445 79.3495 676.794 85.9485 676.794H109.846C116.445 676.794 121.794 671.445 121.794 664.846V640.949C121.794 634.35 116.445 629 109.846 629Z" fill="#EC4899" clip-path="url(#clip0_181_98)" transform="matrix(0.9999999999999999, 0, 0, 1, -5.684341886080802e-14, 0)"/>
  <path d="M98.1438 659.179C97.4705 659.175 96.8207 659.062 96.1942 658.84C95.5721 658.619 95.0138 658.258 94.5195 657.76C94.0252 657.261 93.6332 656.601 93.3434 655.778C93.0579 654.956 92.9151 653.946 92.9151 652.749C92.9194 651.649 93.0451 650.667 93.2923 649.802C93.5437 648.932 93.9016 648.195 94.3661 647.59C94.8349 646.985 95.3952 646.525 96.0472 646.209C96.6992 645.89 97.43 645.73 98.2397 645.73C99.1133 645.73 99.8846 645.901 100.554 646.241C101.223 646.578 101.76 647.036 102.164 647.616C102.574 648.195 102.821 648.845 102.906 649.565H100.176C100.07 649.109 99.8462 648.751 99.5053 648.491C99.1644 648.231 98.7425 648.102 98.2397 648.102C97.3874 648.102 96.7397 648.472 96.2965 649.214C95.8576 649.955 95.6339 650.963 95.6254 652.237H95.7148C95.9109 651.849 96.1751 651.519 96.5075 651.246C96.8441 650.969 97.2255 650.758 97.6516 650.614C98.082 650.464 98.5359 650.39 99.0131 650.39C99.7887 650.39 100.479 650.573 101.084 650.94C101.689 651.302 102.167 651.8 102.516 652.435C102.865 653.07 103.04 653.797 103.04 654.615C103.04 655.501 102.833 656.29 102.42 656.98C102.011 657.67 101.438 658.212 100.701 658.604C99.9677 658.991 99.1154 659.183 98.1438 659.179ZM98.131 657.006C98.5572 657.006 98.9386 656.903 99.2752 656.699C99.6119 656.494 99.8761 656.217 100.068 655.868C100.26 655.518 100.355 655.126 100.355 654.692C100.355 654.257 100.26 653.867 100.068 653.522C99.8803 653.177 99.6204 652.902 99.288 652.697C98.9556 652.493 98.5763 652.391 98.1502 652.391C97.8306 652.391 97.5344 652.45 97.2617 652.57C96.9933 652.689 96.7567 652.855 96.5522 653.068C96.3519 653.281 96.1942 653.528 96.0792 653.81C95.9641 654.087 95.9066 654.383 95.9066 654.698C95.9066 655.12 96.0025 655.506 96.1942 655.855C96.3903 656.204 96.6545 656.484 96.9869 656.692C97.3235 656.901 97.7049 657.006 98.131 657.006Z" fill="white" clip-path="url(#clip0_181_98)" transform="matrix(0.9999999999999999, 0, 0, 1, -5.684341886080802e-14, 0)"/>
  <path d="M109.846 695H85.9485C79.3495 695 74 700.349 74 706.948V730.845C74 737.444 79.3495 742.794 85.9485 742.794H109.846C116.445 742.794 121.794 737.444 121.794 730.845V706.948C121.794 700.349 116.445 695 109.846 695Z" fill="#06B6D4" clip-path="url(#clip0_181_98)" transform="matrix(0.9999999999999999, 0, 0, 1, -5.684341886080802e-14, 0)"/>
  <path d="M93.7263 726L99.1531 715.261V715.172H92.8314V712.909H102.017V715.204L96.5835 726H93.7263Z" fill="white" clip-path="url(#clip0_181_98)" transform="matrix(0.9999999999999999, 0, 0, 1, -5.684341886080802e-14, 0)"/>
  <path d="M109.846 762H85.9485C79.3495 762 74 767.35 74 773.949V797.846C74 804.445 79.3495 809.794 85.9485 809.794H109.846C116.445 809.794 121.794 804.445 121.794 797.846V773.949C121.794 767.35 116.445 762 109.846 762Z" fill="#14B8A6" clip-path="url(#clip0_181_98)" transform="matrix(0.9999999999999999, 0, 0, 1, -5.684341886080802e-14, 0)"/>
  <path d="M97.9944 793.179C97.01 793.179 96.1343 793.019 95.3673 792.7C94.6045 792.376 94.0058 791.935 93.5711 791.376C93.1365 790.818 92.9191 790.185 92.9191 789.478C92.9191 788.933 93.0427 788.432 93.2899 787.976C93.5413 787.516 93.8822 787.134 94.3126 786.832C94.743 786.525 95.2245 786.329 95.7572 786.244V786.154C95.0583 786.014 94.4916 785.675 94.0569 785.138C93.6222 784.597 93.4049 783.968 93.4049 783.252C93.4049 782.575 93.6031 781.972 93.9994 781.443C94.3957 780.911 94.939 780.493 95.6294 780.19C96.324 779.884 97.1123 779.73 97.9944 779.73C98.8765 779.73 99.6627 779.884 100.353 780.19C101.048 780.497 101.593 780.917 101.989 781.45C102.386 781.978 102.586 782.579 102.59 783.252C102.586 783.972 102.364 784.601 101.926 785.138C101.487 785.675 100.924 786.014 100.238 786.154V786.244C100.762 786.329 101.237 786.525 101.663 786.832C102.094 787.134 102.435 787.516 102.686 787.976C102.942 788.432 103.072 788.933 103.076 789.478C103.072 790.185 102.852 790.818 102.418 791.376C101.983 791.935 101.382 792.376 100.615 792.7C99.8524 793.019 98.9788 793.179 97.9944 793.179ZM97.9944 791.146C98.4333 791.146 98.8169 791.068 99.145 790.91C99.4731 790.748 99.7288 790.526 99.912 790.245C100.1 789.96 100.193 789.631 100.193 789.261C100.193 788.881 100.097 788.547 99.9056 788.257C99.7139 787.963 99.4539 787.733 99.1258 787.567C98.7977 787.396 98.4205 787.311 97.9944 787.311C97.5725 787.311 97.1954 787.396 96.863 787.567C96.5306 787.733 96.2686 787.963 96.0768 788.257C95.8893 788.547 95.7955 788.881 95.7955 789.261C95.7955 789.631 95.8872 789.96 96.0704 790.245C96.2536 790.526 96.5115 790.748 96.8438 790.91C97.1762 791.068 97.5597 791.146 97.9944 791.146ZM97.9944 785.298C98.3609 785.298 98.6869 785.223 98.9724 785.074C99.2579 784.925 99.4816 784.718 99.6436 784.454C99.8055 784.19 99.8865 783.885 99.8865 783.54C99.8865 783.199 99.8055 782.901 99.6436 782.645C99.4816 782.385 99.26 782.183 98.9788 782.038C98.6975 781.889 98.3694 781.814 97.9944 781.814C97.6237 781.814 97.2955 781.889 97.01 782.038C96.7245 782.183 96.5008 782.385 96.3389 782.645C96.1812 782.901 96.1024 783.199 96.1024 783.54C96.1024 783.885 96.1833 784.19 96.3453 784.454C96.5072 784.718 96.7309 784.925 97.0164 785.074C97.3019 785.223 97.6279 785.298 97.9944 785.298Z" fill="white" clip-path="url(#clip0_181_98)" transform="matrix(0.9999999999999999, 0, 0, 1, -5.684341886080802e-14, 0)"/>
  <path d="M109.846 829H85.9485C79.3495 829 74 834.349 74 840.948V864.845C74 871.444 79.3495 876.794 85.9485 876.794H109.846C116.445 876.794 121.794 871.444 121.794 864.845V840.948C121.794 834.349 116.445 829 109.846 829Z" fill="#F97316" clip-path="url(#clip0_181_98)" transform="matrix(0.9999999999999999, 0, 0, 1, -5.684341886080802e-14, 0)"/>
  <path d="M97.8562 846.73C98.5295 846.73 99.1772 846.843 99.7994 847.069C100.426 847.295 100.984 847.655 101.474 848.149C101.968 848.644 102.358 849.3 102.644 850.118C102.934 850.932 103.081 851.931 103.085 853.116C103.085 854.228 102.959 855.221 102.708 856.095C102.461 856.964 102.105 857.703 101.64 858.313C101.176 858.922 100.615 859.386 99.9592 859.706C99.3029 860.021 98.57 860.179 97.7603 860.179C96.8867 860.179 96.1154 860.011 95.4464 859.674C94.7773 859.333 94.2383 858.871 93.8292 858.287C93.4244 857.699 93.1793 857.038 93.0941 856.305H95.8235C95.93 856.783 96.1538 857.153 96.4947 857.418C96.8356 857.678 97.2575 857.808 97.7603 857.808C98.6126 857.808 99.2603 857.437 99.7035 856.695C100.147 855.95 100.37 854.929 100.375 853.634H100.285C100.089 854.017 99.8249 854.347 99.4925 854.624C99.1602 854.897 98.7788 855.108 98.3484 855.257C97.9222 855.406 97.4684 855.481 96.9869 855.481C96.2156 855.481 95.5273 855.3 94.9222 854.938C94.3171 854.575 93.8398 854.077 93.4904 853.442C93.141 852.807 92.9663 852.082 92.9663 851.269C92.962 850.391 93.1644 849.609 93.5735 848.923C93.9826 848.237 94.5536 847.7 95.2866 847.312C96.0238 846.92 96.8803 846.726 97.8562 846.73ZM97.8754 848.903C97.445 848.903 97.0614 849.006 96.7248 849.21C96.3924 849.415 96.1282 849.69 95.9322 850.035C95.7404 850.38 95.6467 850.766 95.6509 851.192C95.6509 851.622 95.7447 852.01 95.9322 852.355C96.1239 852.696 96.3839 852.969 96.712 853.173C97.0444 853.374 97.4237 853.474 97.8498 853.474C98.1694 853.474 98.4656 853.414 98.7383 853.295C99.011 853.175 99.2475 853.011 99.4478 852.803C99.6523 852.59 99.8121 852.345 99.9272 852.068C100.042 851.791 100.1 851.497 100.1 851.185C100.096 850.772 99.9975 850.393 99.8058 850.048C99.614 849.702 99.3498 849.425 99.0131 849.217C98.6765 849.008 98.2972 848.903 97.8754 848.903Z" fill="white" clip-path="url(#clip0_181_98)" transform="matrix(0.9999999999999999, 0, 0, 1, -5.684341886080802e-14, 0)"/>
  <path d="M109.846 896H85.9485C79.3495 896 74 901.349 74 907.948V931.845C74 938.444 79.3495 943.794 85.9485 943.794H109.846C116.445 943.794 121.794 938.444 121.794 931.845V907.948C121.794 901.349 116.445 896 109.846 896Z" fill="#6366F1" clip-path="url(#clip0_181_98)" transform="matrix(0.9999999999999999, 0, 0, 1, -5.684341886080802e-14, 0)"/>
  <path d="M94.1568 913.909V927H91.389V916.536H91.3123L88.3145 918.416V915.961L91.5552 913.909H94.1568ZM102.401 927.288C101.301 927.284 100.355 927.013 99.5629 926.476C98.7745 925.939 98.1673 925.161 97.7411 924.143C97.3192 923.124 97.1104 921.899 97.1147 920.467C97.1147 919.04 97.3256 917.823 97.7475 916.818C98.1737 915.812 98.7809 915.047 99.5692 914.523C100.362 913.994 101.306 913.73 102.401 913.73C103.496 913.73 104.438 913.994 105.226 914.523C106.019 915.051 106.628 915.818 107.054 916.824C107.48 917.825 107.691 919.04 107.687 920.467C107.687 921.904 107.474 923.131 107.048 924.149C106.626 925.168 106.021 925.945 105.233 926.482C104.444 927.019 103.5 927.288 102.401 927.288ZM102.401 924.993C103.151 924.993 103.75 924.616 104.197 923.862C104.645 923.107 104.866 921.976 104.862 920.467C104.862 919.475 104.76 918.648 104.555 917.987C104.355 917.327 104.069 916.83 103.699 916.498C103.332 916.166 102.9 915.999 102.401 915.999C101.655 915.999 101.059 916.372 100.611 917.118C100.164 917.864 99.9379 918.98 99.9336 920.467C99.9336 921.473 100.034 922.313 100.234 922.986C100.439 923.655 100.726 924.158 101.097 924.494C101.468 924.827 101.902 924.993 102.401 924.993Z" fill="white" clip-path="url(#clip0_181_98)" transform="matrix(0.9999999999999999, 0, 0, 1, -5.684341886080802e-14, 0)"/>
</svg>